# xmcd CD database file
#
# Track frame offsets:
#	150
#	39015
#	72700
#	92257
#	114680
#	117347
#	157777
#	176087
#	200417
#	226532
#
# Disc length: 3475 seconds
#
# Revision: 0
# Processed by: cddbd v1.5.2PL0 Copyright (c) Steve Scherf et al.
# Submitted via: CDex 1.82
#
DISCID=740d910a
DTITLE=Ben Schachter - Fractals
DYEAR=1998
DGENRE=Jazz
TTITLE0=Fractals (It Is...)
TTITLE1=On The Ocean
TTITLE2=Cowboy Song
TTITLE3=Four Joe
TTITLE4=A Short Statement
TTITLE5=Edward
TTITLE6=That Thing
TTITLE7=Gilde
TTITLE8=Ben and Paula's Garden
TTITLE9=Fractals (...What It Is)
EXTD=YEAR: 1998
EXTT0=
EXTT1=
EXTT2=
EXTT3=
EXTT4=
EXTT5=
EXTT6=
EXTT7=
EXTT8=
EXTT9=
PLAYORDER=
